<svg xmlns="http://www.w3.org/2000/svg" viewBox="0 0 64 64" role="img" aria-label="FPGA board icon">
  <rect x="8" y="8" width="48" height="48" rx="10" fill="#0f7ad9"/>
  <rect x="18" y="18" width="28" height="28" rx="4" fill="#ffffff"/>
  <rect x="24" y="24" width="16" height="16" rx="2" fill="#0f7ad9"/>
  <g fill="#ffffff">
    <rect x="2" y="20" width="6" height="3" rx="1"/>
    <rect x="2" y="30" width="6" height="3" rx="1"/>
    <rect x="2" y="40" width="6" height="3" rx="1"/>
    <rect x="56" y="20" width="6" height="3" rx="1"/>
    <rect x="56" y="30" width="6" height="3" rx="1"/>
    <rect x="56" y="40" width="6" height="3" rx="1"/>
    <rect x="20" y="2" width="3" height="6" rx="1"/>
    <rect x="30" y="2" width="3" height="6" rx="1"/>
    <rect x="40" y="2" width="3" height="6" rx="1"/>
    <rect x="20" y="56" width="3" height="6" rx="1"/>
    <rect x="30" y="56" width="3" height="6" rx="1"/>
    <rect x="40" y="56" width="3" height="6" rx="1"/>
  </g>
</svg>
