<svg xmlns="http://www.w3.org/2000/svg" viewBox="0 0 64 64" role="img" aria-label="FPGA board icon">
  <rect width="64" height="64" rx="12" fill="#f2f7ff"/>
  <rect x="14" y="14" width="36" height="36" rx="8" fill="#1267d7"/>
  <rect x="24" y="24" width="16" height="16" rx="3" fill="#ffffff"/>
  <g fill="#1267d7">
    <rect x="2" y="22" width="8" height="3" rx="1"/>
    <rect x="2" y="31" width="8" height="3" rx="1"/>
    <rect x="2" y="40" width="8" height="3" rx="1"/>
    <rect x="54" y="22" width="8" height="3" rx="1"/>
    <rect x="54" y="31" width="8" height="3" rx="1"/>
    <rect x="54" y="40" width="8" height="3" rx="1"/>
    <rect x="22" y="2" width="3" height="8" rx="1"/>
    <rect x="31" y="2" width="3" height="8" rx="1"/>
    <rect x="40" y="2" width="3" height="8" rx="1"/>
    <rect x="22" y="54" width="3" height="8" rx="1"/>
    <rect x="31" y="54" width="3" height="8" rx="1"/>
    <rect x="40" y="54" width="3" height="8" rx="1"/>
  </g>
  <text x="32" y="60" text-anchor="middle" font-size="8" font-family="Arial, sans-serif" font-weight="700" fill="#114fa8">FPGA</text>
</svg>
