<svg xmlns="http://www.w3.org/2000/svg" viewBox="0 0 64 64" role="img" aria-label="SolidWorks logo">
  <rect width="64" height="64" rx="12" fill="#fff5f5"/>
  <path d="M14 20c5-3 9-4 13-1 3 2 5 1 8-1 5-3 10-2 15 2" fill="none" stroke="#d8252c" stroke-width="4" stroke-linecap="round"/>
  <path d="M12 30c6-4 10-5 14-2 3 2 5 1 8-1 5-3 10-2 16 3" fill="none" stroke="#d8252c" stroke-width="4" stroke-linecap="round"/>
  <path d="M10 41c8-5 13-6 18-2 3 2 5 1 8-1 5-3 10-2 18 3" fill="none" stroke="#d8252c" stroke-width="4" stroke-linecap="round"/>
  <text x="32" y="57" text-anchor="middle" font-size="9" font-family="Arial, sans-serif" font-weight="700" fill="#d8252c">SOLIDWORKS</text>
</svg>
